<mxfile host="Electron" modified="2024-05-19T06:21:17.545Z" agent="Mozilla/5.0 (Windows NT 10.0; Win64; x64) AppleWebKit/537.36 (KHTML, like Gecko) draw.io/23.1.5 Chrome/120.0.6099.109 Electron/28.1.0 Safari/537.36" etag="Rq3uza-52c7k1FQYMpMI" version="23.1.5" type="device">
  <diagram name="Strona-1" id="qhjlecZrfErG3EmEXIc5">
    <mxGraphModel dx="790" dy="525" grid="1" gridSize="10" guides="1" tooltips="1" connect="1" arrows="1" fold="1" page="1" pageScale="1" pageWidth="700" pageHeight="220" math="0" shadow="0">
      <root>
        <mxCell id="0" />
        <mxCell id="1" parent="0" />
        <mxCell id="NEbczenDy4_FpuCZlD1_-3" style="edgeStyle=orthogonalEdgeStyle;rounded=0;orthogonalLoop=1;jettySize=auto;html=1;exitX=1;exitY=0.5;exitDx=0;exitDy=0;entryX=0;entryY=0.5;entryDx=0;entryDy=0;curved=1;" parent="1" source="nLh6Hw3wDIEMh4GKDwiy-4" target="NEbczenDy4_FpuCZlD1_-2" edge="1">
          <mxGeometry relative="1" as="geometry" />
        </mxCell>
        <mxCell id="NEbczenDy4_FpuCZlD1_-9" value="&lt;i&gt;avst.valid&lt;/i&gt;" style="edgeLabel;html=1;align=center;verticalAlign=middle;resizable=0;points=[];" parent="NEbczenDy4_FpuCZlD1_-3" vertex="1" connectable="0">
          <mxGeometry x="-0.3321" y="1" relative="1" as="geometry">
            <mxPoint x="-12" y="-68" as="offset" />
          </mxGeometry>
        </mxCell>
        <mxCell id="nLh6Hw3wDIEMh4GKDwiy-4" value="IDLE" style="ellipse;whiteSpace=wrap;html=1;" parent="1" vertex="1">
          <mxGeometry x="40" y="83" width="50" height="50" as="geometry" />
        </mxCell>
        <mxCell id="nLh6Hw3wDIEMh4GKDwiy-39" value="&lt;b&gt;Avalon Stream&lt;/b&gt;&lt;br&gt;&amp;nbsp;-&amp;gt; spect_data[15:0]&amp;nbsp;&amp;nbsp;" style="rounded=0;whiteSpace=wrap;html=1;fillColor=#1ba1e2;fontColor=#ffffff;strokeColor=#006EAF;" parent="1" vertex="1">
          <mxGeometry y="53" width="130" height="43" as="geometry" />
        </mxCell>
        <mxCell id="NEbczenDy4_FpuCZlD1_-41" style="edgeStyle=orthogonalEdgeStyle;rounded=0;orthogonalLoop=1;jettySize=auto;html=1;exitX=1;exitY=1;exitDx=0;exitDy=0;entryX=0;entryY=1;entryDx=0;entryDy=0;" parent="1" source="NEbczenDy4_FpuCZlD1_-2" target="NEbczenDy4_FpuCZlD1_-4" edge="1">
          <mxGeometry relative="1" as="geometry" />
        </mxCell>
        <mxCell id="C7s3aHvMIZBT5sqn7s_Q-1" style="edgeStyle=orthogonalEdgeStyle;rounded=0;orthogonalLoop=1;jettySize=auto;html=1;exitX=1;exitY=0;exitDx=0;exitDy=0;entryX=0;entryY=0;entryDx=0;entryDy=0;" edge="1" parent="1" source="NEbczenDy4_FpuCZlD1_-2" target="NEbczenDy4_FpuCZlD1_-4">
          <mxGeometry relative="1" as="geometry" />
        </mxCell>
        <mxCell id="C7s3aHvMIZBT5sqn7s_Q-2" value="spect_&lt;br&gt;data &amp;lt;= &lt;br&gt;spect" style="edgeLabel;html=1;align=center;verticalAlign=middle;resizable=0;points=[];" vertex="1" connectable="0" parent="C7s3aHvMIZBT5sqn7s_Q-1">
          <mxGeometry x="0.4944" y="-1" relative="1" as="geometry">
            <mxPoint x="-12" y="-27" as="offset" />
          </mxGeometry>
        </mxCell>
        <mxCell id="NEbczenDy4_FpuCZlD1_-2" value="MAX" style="ellipse;whiteSpace=wrap;html=1;" parent="1" vertex="1">
          <mxGeometry x="175" y="40" width="50" height="50" as="geometry" />
        </mxCell>
        <mxCell id="NEbczenDy4_FpuCZlD1_-14" style="edgeStyle=orthogonalEdgeStyle;rounded=0;orthogonalLoop=1;jettySize=auto;html=1;exitX=1;exitY=0.5;exitDx=0;exitDy=0;entryX=0;entryY=0.5;entryDx=0;entryDy=0;" parent="1" source="NEbczenDy4_FpuCZlD1_-4" target="NEbczenDy4_FpuCZlD1_-10" edge="1">
          <mxGeometry relative="1" as="geometry" />
        </mxCell>
        <mxCell id="NEbczenDy4_FpuCZlD1_-15" value="addr1 = out" style="edgeLabel;html=1;align=center;verticalAlign=middle;resizable=0;points=[];" parent="NEbczenDy4_FpuCZlD1_-14" vertex="1" connectable="0">
          <mxGeometry x="-0.103" y="-1" relative="1" as="geometry">
            <mxPoint x="-2" y="24" as="offset" />
          </mxGeometry>
        </mxCell>
        <mxCell id="NEbczenDy4_FpuCZlD1_-4" value="ADDR1" style="ellipse;whiteSpace=wrap;html=1;" parent="1" vertex="1">
          <mxGeometry x="310" y="40" width="50" height="50" as="geometry" />
        </mxCell>
        <mxCell id="NEbczenDy4_FpuCZlD1_-6" value="&lt;i&gt;spect_data &amp;gt; spect&lt;br&gt;&lt;/i&gt;&lt;span style=&quot;background-color: initial;&quot;&gt;spect =&amp;nbsp;&lt;/span&gt;spect_data" style="text;html=1;align=center;verticalAlign=middle;whiteSpace=wrap;rounded=0;" parent="1" vertex="1">
          <mxGeometry x="200" y="90" width="125" height="30" as="geometry" />
        </mxCell>
        <mxCell id="NEbczenDy4_FpuCZlD1_-8" value="&lt;b&gt;mel_spect_table&lt;br&gt;addr = counter&lt;/b&gt;" style="rounded=0;whiteSpace=wrap;html=1;fillColor=#1ba1e2;fontColor=#ffffff;strokeColor=#006EAF;" parent="1" vertex="1">
          <mxGeometry x="150" width="100" height="43" as="geometry" />
        </mxCell>
        <mxCell id="NEbczenDy4_FpuCZlD1_-17" style="edgeStyle=orthogonalEdgeStyle;rounded=0;orthogonalLoop=1;jettySize=auto;html=1;exitX=1;exitY=1;exitDx=0;exitDy=0;entryX=0;entryY=1;entryDx=0;entryDy=0;" parent="1" source="NEbczenDy4_FpuCZlD1_-10" target="NEbczenDy4_FpuCZlD1_-16" edge="1">
          <mxGeometry relative="1" as="geometry" />
        </mxCell>
        <mxCell id="NEbczenDy4_FpuCZlD1_-19" value="&lt;i&gt;counter&amp;nbsp; == 255&lt;/i&gt;&lt;div&gt;addr2 = 255&lt;/div&gt;" style="edgeLabel;html=1;align=center;verticalAlign=middle;resizable=0;points=[];" parent="NEbczenDy4_FpuCZlD1_-17" vertex="1" connectable="0">
          <mxGeometry x="-0.1455" relative="1" as="geometry">
            <mxPoint y="22" as="offset" />
          </mxGeometry>
        </mxCell>
        <mxCell id="NEbczenDy4_FpuCZlD1_-18" value="&lt;i&gt;counter != 255&lt;br&gt;&lt;/i&gt;addr2 = out" style="edgeStyle=orthogonalEdgeStyle;rounded=0;orthogonalLoop=1;jettySize=auto;html=1;exitX=1;exitY=0;exitDx=0;exitDy=0;entryX=0;entryY=0;entryDx=0;entryDy=0;" parent="1" source="NEbczenDy4_FpuCZlD1_-10" target="NEbczenDy4_FpuCZlD1_-16" edge="1">
          <mxGeometry y="17" relative="1" as="geometry">
            <mxPoint as="offset" />
          </mxGeometry>
        </mxCell>
        <mxCell id="NEbczenDy4_FpuCZlD1_-10" value="ADDR2" style="ellipse;whiteSpace=wrap;html=1;" parent="1" vertex="1">
          <mxGeometry x="410" y="40" width="50" height="50" as="geometry" />
        </mxCell>
        <mxCell id="NEbczenDy4_FpuCZlD1_-13" value="&lt;b&gt;mel_spect_table&lt;br&gt;addr = counter + 1&lt;/b&gt;" style="rounded=0;whiteSpace=wrap;html=1;fillColor=#1ba1e2;fontColor=#ffffff;strokeColor=#006EAF;" parent="1" vertex="1">
          <mxGeometry x="310" width="115" height="43" as="geometry" />
        </mxCell>
        <mxCell id="NEbczenDy4_FpuCZlD1_-22" style="edgeStyle=orthogonalEdgeStyle;rounded=0;orthogonalLoop=1;jettySize=auto;html=1;exitX=1;exitY=1;exitDx=0;exitDy=0;entryX=0;entryY=1;entryDx=0;entryDy=0;" parent="1" source="NEbczenDy4_FpuCZlD1_-16" target="NEbczenDy4_FpuCZlD1_-21" edge="1">
          <mxGeometry relative="1" as="geometry" />
        </mxCell>
        <mxCell id="NEbczenDy4_FpuCZlD1_-24" value="&lt;i&gt;counter == 255&lt;/i&gt;&lt;br&gt;diff = 3" style="edgeLabel;html=1;align=center;verticalAlign=middle;resizable=0;points=[];" parent="NEbczenDy4_FpuCZlD1_-22" vertex="1" connectable="0">
          <mxGeometry x="-0.3736" y="-1" relative="1" as="geometry">
            <mxPoint y="21" as="offset" />
          </mxGeometry>
        </mxCell>
        <mxCell id="NEbczenDy4_FpuCZlD1_-23" style="edgeStyle=orthogonalEdgeStyle;rounded=0;orthogonalLoop=1;jettySize=auto;html=1;exitX=1;exitY=0;exitDx=0;exitDy=0;entryX=0;entryY=0;entryDx=0;entryDy=0;" parent="1" source="NEbczenDy4_FpuCZlD1_-16" target="NEbczenDy4_FpuCZlD1_-21" edge="1">
          <mxGeometry relative="1" as="geometry" />
        </mxCell>
        <mxCell id="NEbczenDy4_FpuCZlD1_-25" value="&lt;i&gt;counter != 255&lt;/i&gt;&lt;br&gt;diff = addr2 - addr1" style="edgeLabel;html=1;align=center;verticalAlign=middle;resizable=0;points=[];" parent="NEbczenDy4_FpuCZlD1_-23" vertex="1" connectable="0">
          <mxGeometry x="-0.3736" y="3" relative="1" as="geometry">
            <mxPoint x="10" y="-24" as="offset" />
          </mxGeometry>
        </mxCell>
        <mxCell id="NEbczenDy4_FpuCZlD1_-16" value="DIFF" style="ellipse;whiteSpace=wrap;html=1;" parent="1" vertex="1">
          <mxGeometry x="520" y="40" width="50" height="50" as="geometry" />
        </mxCell>
        <mxCell id="NEbczenDy4_FpuCZlD1_-33" style="edgeStyle=orthogonalEdgeStyle;rounded=0;orthogonalLoop=1;jettySize=auto;html=1;exitX=0.5;exitY=1;exitDx=0;exitDy=0;entryX=1;entryY=1;entryDx=0;entryDy=0;curved=1;" parent="1" source="NEbczenDy4_FpuCZlD1_-21" target="nLh6Hw3wDIEMh4GKDwiy-4" edge="1">
          <mxGeometry relative="1" as="geometry">
            <Array as="points">
              <mxPoint x="635" y="140" />
              <mxPoint x="83" y="140" />
            </Array>
          </mxGeometry>
        </mxCell>
        <mxCell id="NEbczenDy4_FpuCZlD1_-35" value="&lt;i&gt;diff = 0&lt;/i&gt;&lt;br&gt;counter += 1" style="edgeLabel;html=1;align=center;verticalAlign=middle;resizable=0;points=[];" parent="NEbczenDy4_FpuCZlD1_-33" vertex="1" connectable="0">
          <mxGeometry x="-0.5334" y="3" relative="1" as="geometry">
            <mxPoint x="9" y="7" as="offset" />
          </mxGeometry>
        </mxCell>
        <mxCell id="NEbczenDy4_FpuCZlD1_-34" style="edgeStyle=orthogonalEdgeStyle;rounded=0;orthogonalLoop=1;jettySize=auto;html=1;exitX=1;exitY=0.5;exitDx=0;exitDy=0;entryX=1;entryY=0.5;entryDx=0;entryDy=0;curved=1;" parent="1" source="NEbczenDy4_FpuCZlD1_-21" target="NEbczenDy4_FpuCZlD1_-27" edge="1">
          <mxGeometry relative="1" as="geometry" />
        </mxCell>
        <mxCell id="NEbczenDy4_FpuCZlD1_-36" value="&lt;i&gt;diff != 0&lt;br&gt;&lt;/i&gt;counter += 1" style="edgeLabel;html=1;align=center;verticalAlign=middle;resizable=0;points=[];" parent="NEbczenDy4_FpuCZlD1_-34" vertex="1" connectable="0">
          <mxGeometry x="0.3118" y="-2" relative="1" as="geometry">
            <mxPoint x="34" y="12" as="offset" />
          </mxGeometry>
        </mxCell>
        <mxCell id="NEbczenDy4_FpuCZlD1_-21" value="CHECK" style="ellipse;whiteSpace=wrap;html=1;" parent="1" vertex="1">
          <mxGeometry x="610" y="40" width="50" height="50" as="geometry" />
        </mxCell>
        <mxCell id="NEbczenDy4_FpuCZlD1_-30" style="edgeStyle=orthogonalEdgeStyle;rounded=0;orthogonalLoop=1;jettySize=auto;html=1;exitX=0;exitY=0.5;exitDx=0;exitDy=0;curved=1;" parent="1" source="NEbczenDy4_FpuCZlD1_-27" target="nLh6Hw3wDIEMh4GKDwiy-4" edge="1">
          <mxGeometry relative="1" as="geometry" />
        </mxCell>
        <mxCell id="NEbczenDy4_FpuCZlD1_-38" value="&lt;i&gt;avst.ready&lt;br&gt;&lt;/i&gt;mem = 0" style="edgeLabel;html=1;align=center;verticalAlign=middle;resizable=0;points=[];" parent="NEbczenDy4_FpuCZlD1_-30" vertex="1" connectable="0">
          <mxGeometry x="0.093" y="-10" relative="1" as="geometry">
            <mxPoint x="13" y="29" as="offset" />
          </mxGeometry>
        </mxCell>
        <mxCell id="NEbczenDy4_FpuCZlD1_-27" value="RETURN&lt;br&gt;&lt;div&gt;&lt;br&gt;&lt;/div&gt;&lt;div&gt;&lt;br&gt;&lt;/div&gt;" style="ellipse;whiteSpace=wrap;html=1;" parent="1" vertex="1">
          <mxGeometry x="390" y="150" width="60" height="60" as="geometry" />
        </mxCell>
        <mxCell id="NEbczenDy4_FpuCZlD1_-37" value="&lt;b&gt;Avalon Stream&lt;/b&gt;&lt;br&gt;&amp;nbsp; &amp;nbsp;mem -&amp;gt;" style="rounded=0;whiteSpace=wrap;html=1;fillColor=#1ba1e2;fontColor=#ffffff;strokeColor=#006EAF;" parent="1" vertex="1">
          <mxGeometry x="310" y="177" width="130" height="43" as="geometry" />
        </mxCell>
      </root>
    </mxGraphModel>
  </diagram>
</mxfile>
